<?xml version="1.0" encoding="UTF-8" standalone="no"?>
<svg
  xmlns="http://www.w3.org/2000/svg"
  xmlns:xlink="http://www.w3.org/1999/xlink"
  version="1.1"
  width="160"
  height="43">
  <defs>
    <g
      id="xbmc">
      <path
        d="m 14.888745,1 -0.327659,2.2579 -1.977101,0 c -1.201419,0 -2.313677,0.4258 -3.336776,1.275 C 8.977502,4.7558 8.736773,4.9876 8.522792,5.235 8.402428,4.9876 8.253086,4.7558 8.07031,4.5329 7.370412,3.6837 6.414182,3.2579 5.212763,3.2579 l -2.554405,0 c -0.09138,0.477 0,0.8827 0.269706,1.2193 0.271935,0.3366 0.644173,0.5082 1.123402,0.5082 l 0.835867,0 c 0.715501,0 1.274974,0.2563 1.678419,0.7735 C 6.969195,6.276 7.105163,6.8956 6.969195,7.6111 6.833235,8.3289 6.467678,8.9396 5.868083,9.45 5.268489,9.9583 4.604254,10.2168 3.890981,10.2168 l -0.835865,0 c -0.479231,0 -0.91611,0.165 -1.317325,0.5015 C 1.336575,11.0549 1.089158,11.4583 1,11.9376 l 2.56332,0 c 1.201419,0 2.306991,-0.4191 3.330091,-1.2617 0.267476,-0.2206 0.510435,-0.4569 0.722188,-0.7043 0.120364,0.2474 0.276392,0.4837 0.461398,0.7043 0.699898,0.8426 1.647211,1.2617 2.84863,1.2617 l 2.563323,0 c 0.09138,-0.4793 0,-0.8827 -0.271937,-1.2193 -0.271935,-0.3365 -0.650861,-0.5015 -1.127862,-0.5015 l -0.829178,0 C 10.542243,10.2168 9.98054,9.9583 9.574868,9.45 9.166966,8.9396 9.030998,8.3289 9.169193,7.6111 9.305168,6.8956 9.675172,6.276 10.276995,5.7589 10.878819,5.2417 11.540824,4.9854 12.256325,4.9854 l 0.835866,0 c 0.465855,0 0.893818,-0.1672 1.288347,-0.4881 L 13.928056,7.5911 C 13.747509,8.8125 14.032813,9.8468 14.79067,10.7027 15.53069,11.572 16.527041,12 17.730688,12 c 1.225936,0 2.340425,-0.428 3.343463,-1.2973 1.00304,-0.8559 1.60486,-1.8902 1.78318,-3.1116 C 23.035651,6.3674 22.745891,5.3331 22.01032,4.4772 21.252469,3.628 20.24943,3.1955 19.023493,3.1955 l -2.607901,0 0.04457,-0.341 C 16.549322,2.3507 16.437862,1.9094 16.103525,1.5439 15.81376,1.1783 15.396941,1 14.888735,1 z m 1.25937,3.9497 2.630191,0 c 0.713273,0 1.292807,0.2497 1.738601,0.7668 0.401216,0.5149 0.557244,1.1502 0.468085,1.8746 -0.111443,0.7244 -0.445795,1.344 -1.025329,1.8656 -0.579533,0.5261 -1.225935,0.7935 -1.961498,0.7935 -0.735562,0 -1.315094,-0.2674 -1.738601,-0.7935 C 15.836058,8.9351 15.680031,8.3155 15.769189,7.5911 l 0.378926,-2.6414 z" />
      <path
        d="m 27.783371,3.1955 c -1.22594,0 -2.34043,0.4302 -3.32118,1.2884 -1.00304,0.8715 -1.60486,1.9035 -1.78318,3.1272 L 22.032611,12 c 0.51266,0 0.98075,-0.1716 1.38196,-0.5372 0.42351,-0.3589 0.6687,-0.7935 0.73556,-1.3084 l 0.37893,-2.5433 c 0.11144,-0.7311 0.4458,-1.3574 1.02533,-1.8879 0.57953,-0.5171 1.24823,-0.7735 1.9615,-0.7735 0.73556,0 1.31509,0.2564 1.7386,0.7735 0.4235,0.5305 0.57953,1.1568 0.46808,1.8879 l -0.35663,2.5433 c -0.0892,0.506 0.0446,0.9295 0.35663,1.295 0.31206,0.3633 0.71328,0.5506 1.22594,0.5506 l 0.6464,-4.3889 c 0.0892,-0.7311 0.4458,-1.3574 1.02533,-1.8879 0.57954,-0.5171 1.22594,-0.7735 1.9615,-0.7735 0.71327,0 1.2928,0.2564 1.71631,0.7735 0.4235,0.5305 0.60182,1.1568 0.49038,1.8879 l -0.37893,2.5433 c -0.0669,0.506 0.0446,0.9295 0.35663,1.295 0.31206,0.3633 0.71328,0.5506 1.22594,0.5506 l 0.31206,-2.0551 c 0.13373,0.2697 0.28977,0.526 0.51266,0.7667 0.75785,0.8582 1.7386,1.2884 2.94225,1.2884 l 2.6079,0 c 0.0669,-0.4837 -0.0446,-0.8983 -0.33434,-1.2416 -0.28977,-0.3388 -0.69099,-0.5082 -1.15907,-0.5082 l -0.84701,0 c -0.73557,0 -1.3151,-0.263 -1.7386,-0.7801 -0.4458,-0.5149 -0.60183,-1.1346 -0.51267,-1.859 0.11144,-0.7311 0.46809,-1.3574 1.04762,-1.8879 0.57953,-0.5171 1.24823,-0.7735 1.9615,-0.7735 l 0.84701,0 c 0.49037,0 0.93617,-0.1805 1.33738,-0.5215 0.37893,-0.3411 0.60183,-0.7445 0.6687,-1.2327 l -2.58562,0 c -1.22593,0 -2.31813,0.4302 -3.32117,1.2884 -0.49037,0.4279 -0.89159,0.896 -1.18136,1.4065 -0.13373,-0.5127 -0.40121,-0.983 -0.75784,-1.4065 -0.75786,-0.8582 -1.73861,-1.2884 -2.96454,-1.2884 -0.6687,0 -1.33739,0.1583 -2.00608,0.4659 -0.66869,0.3076 -1.27052,0.72 -1.76089,1.2616 -0.35664,-0.5416 -0.82472,-0.9674 -1.38197,-1.275 -0.57953,-0.2987 -1.20364,-0.4525 -1.89463,-0.4525 z" />
    </g>
    <path
      id="play"
      d="M 0,13 0,0 7,6.5 z" />
    <path
      id="add"
      d="m 2,3 3,0 0,2 2,0 0,3 -2,0 0,2 -3,0 0,-2 -2,0 0,-3 2,0 z" />
    <path
      id="insert"
      d="m 0,3 c 4,0 5,0 5,5 l 2,0 -3,3 -3,-3 2,0 C 3,5 3,5 0,5 z" />
    <path
      id="replace"
      d="M 2,3 3.5,5 5,3 7,5 5,6.5 7,8 5,10 3.5,8 2,10 0,8 2,6.5 0,5 z" />
    <path
      id="arrow"
      d="m 2,4 8,0 -4,4 z" />

    <g
      id="play-add">
      <use
        x="0"
        xlink:href="#play" />
      <use
        x="8"
        xlink:href="#add" />
    </g>

    <g
      id="play-insert">
      <use
        x="0"
        xlink:href="#play" />
      <use
        x="8"
        xlink:href="#insert" />
    </g>

    <g
      id="play-replace">
      <use
        x="0"
        xlink:href="#play" />
      <use
        x="8"
        xlink:href="#replace" />
    </g>

    <g
      id="buttons">
      <use
        x="0"
        xlink:href="#xbmc" /> 
      <use
        x="60"
        xlink:href="#play" />
      <use
        x="80"
        xlink:href="#play-add" />
      <use
        x="100"
        xlink:href="#play-insert" />
      <use
        x="120"
        xlink:href="#play-replace" />
      <use
        x="140"
        xlink:href="#arrow" />
    </g>
  </defs>
  <use
    xlink:href="#buttons"
    y="1"
    style="fill: rgb(83,83,83)" />
  <use
    xlink:href="#buttons"
    y="16"
    style="fill: rgb(34,34,34)" />
  <g
    transform="translate(0,31)"
    style="fill: rgb(119,119,119)">
      <use
        xlink:href="#xbmc" 
        transform="scale(0.84615385)" />
      <use
        xlink:href="#play"
        transform="matrix(0.84615385,0,0,0.84615385,60,0)" />
      <use
        xlink:href="#play-add"
        transform="matrix(0.84615385,0,0,0.84615385,80,0)" />
      <use
        xlink:href="#play-insert"
        transform="matrix(0.84615385,0,0,0.84615385,100,0)" />
      <use
        xlink:href="#play-replace"
        transform="matrix(0.84615385,0,0,0.84615385,120,0)" />
      <use
        xlink:href="#arrow"
        transform="matrix(0.84615385,0,0,0.84615385,140,0)" />
  </g>
</svg>
